<svg width="16" height="11" viewBox="0 0 16 11" fill="none" xmlns="http://www.w3.org/2000/svg">
<path d="M13.5005 0H1.49946C0.675027 0 0.0072002 0.562472 0.0072002 1.25019L0 8.74981C0 9.43753 0.675027 10 1.49946 10H13.5005C14.325 10 15 9.43753 15 8.74981V1.25019C15 0.562472 14.325 0 13.5005 0ZM13.1999 2.65637L7.89782 5.41923C7.7782 5.4806 7.64048 5.5131 7.5 5.5131C7.35952 5.5131 7.2218 5.4806 7.10218 5.41923L1.80007 2.65637C1.72591 2.62075 1.66113 2.57305 1.60958 2.51611C1.55803 2.45917 1.52078 2.39416 1.50004 2.32496C1.47931 2.25575 1.47552 2.18378 1.4889 2.11334C1.50228 2.04289 1.53256 1.97541 1.57793 1.91493C1.62329 1.85444 1.68282 1.8022 1.75295 1.7613C1.82308 1.72041 1.90238 1.69171 1.98612 1.67692C2.06985 1.66212 2.1563 1.66154 2.24032 1.67519C2.32433 1.68885 2.40418 1.71648 2.4751 1.75641L7.5 4.37528L12.5249 1.75641C12.5958 1.71648 12.6757 1.68885 12.7597 1.67519C12.8437 1.66154 12.9301 1.66212 13.0139 1.67692C13.0976 1.69171 13.1769 1.72041 13.2471 1.7613C13.3172 1.8022 13.3767 1.85444 13.4221 1.91493C13.4674 1.97541 13.4977 2.04289 13.5111 2.11334C13.5245 2.18378 13.5207 2.25575 13.5 2.32496C13.4792 2.39416 13.442 2.45917 13.3904 2.51611C13.3389 2.57305 13.2741 2.62075 13.1999 2.65637Z" fill="url(#paint0_linear_51_396)"/>
<defs>
<linearGradient id="paint0_linear_51_396" x1="7.5" y1="0" x2="7.5" y2="10" gradientUnits="userSpaceOnUse">
<stop stop-color="#FBB35A"/>
<stop offset="1" stop-color="#E88100"/>
</linearGradient>
</defs>
</svg>
