<svg width="100" height="32" viewBox="0 0 100 32" fill="none" xmlns="http://www.w3.org/2000/svg">
<g id="logo">
<g id="Logo-simples">
<path id="path306" fill-rule="evenodd" clip-rule="evenodd" d="M20.76 26.4881H17.823V24.5643V20.7381L10.3535 32H37.5916C45.9892 32 52.8599 24.8 52.8599 16C52.8599 7.20003 45.9892 0 37.5916 0H28.7025V24.5643H34.3862V5.4943H37.1829C42.704 5.4943 47.2215 10.2282 47.2215 16.0139C47.2215 21.7999 42.704 26.5336 37.1829 26.5336H34.3862V26.4881H28.7025H26.425H20.76Z" fill="#000000"/>
<path id="path308" fill-rule="evenodd" clip-rule="evenodd" d="M0 32H6.94042L17.8235 15.5872L20.7604 11.2129V24.5643H26.4254V0H21.1952L0 32Z" fill="#000000"/>
<path id="path310" d="M64.2858 18.3189V21.067H58.1732V24.1707H63.5688V26.9388H58.1732V32H55.3809V18.3189H64.2858ZM68.9649 18.3189V29.1927H75.6245V32H66.1725V18.3189H68.9649ZM86.284 18.3189V21.0471H80.1714V23.8151H85.567V26.5433H80.1714V29.2718H86.284V32H77.379V18.3189H86.284ZM95.7548 25.0804L100 32H96.9057L93.7362 26.6224L90.548 32H87.4536L91.7176 25.0804L87.6046 18.3189H90.7176L93.7362 23.4788L96.7547 18.3189H99.8491L95.7548 25.0804Z" fill="#000000"/>
</g>
</g>
</svg>
