<svg width="16" height="13" viewBox="0 0 16 13" fill="none" xmlns="http://www.w3.org/2000/svg">
<g clip-path="url(#clip0_51_402)">
<path d="M14.003 8.35206L11.886 8.16593C11.6372 8.14351 11.3851 8.16473 11.1485 8.22801C10.9119 8.29128 10.697 8.39496 10.52 8.53127L8.98603 9.71034C6.62072 8.78499 4.69815 7.30628 3.49503 5.48705L5.03603 4.30105C5.39503 4.0257 5.57003 3.64113 5.51103 3.24964L5.27003 1.63447C5.22266 1.32175 5.02744 1.03334 4.72153 0.824147C4.41562 0.614954 4.02037 0.499585 3.61103 0.500001H2.17003C1.22803 0.500001 0.445029 1.103 0.503029 1.82675C0.945029 7.30066 6.63603 11.6716 13.745 12.0116C14.686 12.0562 15.47 11.454 15.47 10.7294V9.62113C15.4721 9.30767 15.3234 9.00468 15.0526 8.77042C14.7818 8.53616 14.408 8.38716 14.003 8.35206Z" fill="url(#paint0_linear_51_402)"/>
</g>
<defs>
<linearGradient id="paint0_linear_51_402" x1="7.98503" y1="0.5" x2="7.98503" y2="12.0139" gradientUnits="userSpaceOnUse">
<stop stop-color="#FBB35A"/>
<stop offset="1" stop-color="#E88100"/>
</linearGradient>
<clipPath id="clip0_51_402">
<rect width="16" height="13" fill="white"/>
</clipPath>
</defs>
</svg>
